<?xml version="1.0" encoding="UTF-8"?><svg id="a" xmlns="http://www.w3.org/2000/svg" viewBox="0 0 500.37 33.72"><defs><style>.b{fill:#fff;}.c{opacity:.5;}</style></defs><path class="b" d="M.37,0V23.72l1.71-2.4c1.72,.2,3.46-.3,4.81-1.39,.6-.27,1.27-.34,1.91-.21,1.84,.44,3.62,1,5.42,1.45,.37,.1,.75,.16,1.11,.23,.04,.16,.06,.33,.06,.5,.08,.6,.15,1.21,.22,1.81,.68-.21,1.33-.5,1.94-.86,1.61-1.27,3.41-.68,5.21-.36,.44,.08,1,.37,1.29,.26,3.13-1.17,6.52-.34,9.76-.62,1.51-.12,3.32,.5,4.46-.76,.12-.12,.91,0,1.39,0,4.78-.06,9.55-.06,14.33-.06,2.33-.06,4.66-1.5,5.19-3.1,.14-.46,.47-.83,.92-1,1.56-.42,3.2-.7,4.81-1,.2,0,.41,0,.61-.09,1-.24,2.19-.86,2.85-.65,1.19,.5,2.32,1.13,3.37,1.89,.87,.5,1.82,.94,2.76,1.38,.21,.1,.67,.07,.73,.18,1.08,1.82,3.42,1.48,5.56,1.48,2.28-.08,4.53,.52,6.47,1.72,.35,.23,.4,.67,.76,.89,.76,.38,1.55,.71,2.35,1l.19-1.84h2l.57,2c1.51-.19,2.71-.36,3.93-.49,2.2-.24,4.63,.54,6.63-.71,.53-.14,1.1-.14,1.63,0,1.53,.21,3.04,.52,4.52,.93,1.81,.78,3.86,.78,5.67,0,.65-.19,1.35-.19,2,0,1,.3,1.98,.66,2.94,1.08l.12,1.14c1.42,0,2.9,.8,4-.52,.17-.22,1.28-.12,2.11-.12l-1.5,3,.79,.32c.69-.46,1.4-1,2.07-1.48,1.42-1,2.65-2.26,5.3-2,.83-.05,1.64-.25,2.39-.59,2.48-.79,4.29,0,5,2l4.72-.63,.12-1.53c1.89-.3,4.1,.63,5.61-1.14l3.8,3.85c.63-.54,1.1-.91,1.53-1.31,1.6-1.35,3.74-1.87,5.78-1.42,.22,.02,.44,.11,.61,.26,1.16,1.88,3.69,1.23,5.74,1.38,.41-.03,.8-.16,1.15-.36l8.41,.7-2.49,.81c2.16,.79,4.64,.77,5.74-.41,.77-.82,1.49-.72,2.46-.72h2.92c1.67,0,2.42-.72,2.6-2.51,1.86,.72,3.31-2,5.22-.2,2.09-1,4.11-2,6.21-3,.52-.16,1.09-.16,1.61,0,1.19,.47,2.26,1.07,3.4,1.59,.4,.05,.79,.05,1.19,0l-1.51-3c3.71-.59,4.51-.23,5,2.24l3.25-.13-1.08-1.34,2.18-.45-1.85-2c.47-.11,.94-.18,1.42-.2,2,.11,3.67-.12,4.76-1.4,.41-.1,.85-.1,1.26,0,.41,.09,.78,.46,1.11,.46,2.72-.27,4.4,.83,6.14,1.95,.86,.38,1.74,.68,2.65,.91l-.26-2.85,4.9,1.46c.67-1.17,2-1.63,4.18-1.51s4.3-.07,6.44,0c.79,.1,1.58,.27,2.35,.49,1.1,.2,2.24,.3,3.85,.51l-.85-2.79c.34-.78,1.77-.78,3.34-.78,.93,.18,1.9-.06,2.64-.65,.32-.26,1.89,0,3.54,0-1.24,.92-2.12,1.55-2.94,2.21-.31,.29-.59,.61-.84,.95,.78,0,2,.14,2.28-.13,2.12-1.9,4.74-2.5,8.29-2.41,1.74,0,3.56-1.15,5.3-1.83,.6-.29,1.17-.63,1.72-1v-1.29c2.39-.78,4.53-1.43,6.53-2.14,1.39-.49,5.38-.19,6.38,.53,.67-.33,1.13-1.37,2.21-.13,.39,.45,2.25,.11,2.59,1.12,.67,.07,1.35,0,2-.2,1.16-1.06,2.5-.54,3.82-.4,.56,.05,1.11,.15,1.66,.28l7,.51,.17,1.52c.49-.13,.88-.19,1.23-.3,.51-.24,1.05-.42,1.6-.53,2.75-.13,2.75-.1,3.89-1.73,1.21,1,2.37,1,4,.21l.18-.07c1.07-.39,2.25,.16,2.64,1.23v.03c.39,.88,.93,1.24,2.73,1l-.69-3.1,2.62-.1c1,1.85,1.68,1.89,4.2,1,1.94-.54,3.92-.96,5.91-1.26l.55,1.74c.64,0,1.28-.03,1.91-.1,.53-.11,1.04-.27,1.54-.48-.23,.58,1.45,.9,.34,1.72-.6,.43-.51,1.29-.83,2.24l2.4,1.27,.14-.2,2.16,2.38c1.6-1.03,3.63-1.14,5.33-.29,1.53,.68,2.66-.64,4-1,1.62-.45,3.1-1.13,4.4-1.6,2.75,2.22,5.69,.68,8.2,1.2l.19-.33-1.32-1,.13-.4c2.65,.47,5.41-.78,8,.65,.55,.18,1.14,.21,1.71,.08,.85-1.37,2.48-.47,3.78-.74l.57,1.49c3-1.11,4.09-.78,4.75,1.32,.1,.32,.63,.6,.85,.79l-1,1.93,.66,.45c1.51-.35,2.97-.87,4.36-1.54,1.84-1.4,4.41-1.33,6.18,.16,.21,.15,.22,.43,.32,.65l.7-.27c.15-.46,.11-1.07,.48-1.47,.46-.37,1.05-.52,1.63-.41,2.1-.02,4.19,.1,6.27,.37,1.98,.51,3.91,1.18,5.78,2-.25,.27-.68,.72-1.06,1.19-.15,.17-.34,.42-.26,.59,.21,.19,.48,.3,.77,.3,.4,.06,.81,.01,1.19-.14,1.81-1.46,2.84-.45,4,.57l-2.3,.56c1.3,1.69,3.86,1.79,6.45,2.59l-.76,2.7h-.55l1.71,1c1.44-1.08,4.17-1,6.05-.17,1.1,.3,2.24,.45,3.38,.46,.07,.46,.11,.92,.12,1.38,2.7,.57,5.69-.71,8.28,.85l.46-1.4c1.07,.19,2.88,.66,3.07,.47,.76-.67,1.81-.91,2.79-.63,1.69,.18,3.37,.52,5,1,1.32,.45,1.21,.6,2.1-.23,1.44,1.09,3.42,1.14,4.92,.12,1,.47,2,.95,3,1.38,.31,.14,.66,.19,1,.14,1.63-1.28,3.39-.13,5.06-.19,1.72-.12,3.43-.35,5.12-.69,2.21-.37,3.51,1,5.39,1.2,.64,.15,1.29,.25,1.95,.27,1.25-.26,2.52-.44,3.79-.53,2.12,.07,4.36-.41,6.36,.61,.45,.15,.94,.15,1.39,0,3-1.4,6.47-.27,9.67-.61,.69-.07,1.69,1.31,2.69,2.12,.18-.38,.31-.77,.39-1.18V0H.37Z"/><g class="c"><path class="b" d="M0,1.11V24.85l1.71-2.39c1.73,.19,3.46-.31,4.81-1.4,.6-.26,1.27-.34,1.91-.21,1.84,.44,3.62,1,5.42,1.45,.37,.1,.75,.17,1.11,.24,.05,.16,.07,.32,.06,.49,.08,.6,.15,1.21,.22,1.81,.68-.21,1.33-.5,1.94-.86,1.61-1.27,3.41-.68,5.21-.36,.44,.08,1,.37,1.29,.27,3.13-1.18,6.52-.35,9.76-.62,1.51-.12,3.32,.49,4.46-.76,.12-.13,.91,0,1.39,0,4.78-.06,9.55-.06,14.33-.06,2.33-.07,4.66-1.51,5.19-3.11,.14-.46,.47-.83,.92-1,1.56-.42,3.2-.7,4.81-1,.2,0,.41,0,.61-.09,1-.23,2.19-.85,2.85-.65,1.2,.5,2.33,1.13,3.38,1.9,.87,.49,1.82,.93,2.76,1.38,.21,.09,.67,.06,.73,.17,1.08,1.83,3.42,1.48,5.56,1.48,2.28-.08,4.53,.52,6.47,1.73,.35,.22,.4,.67,.76,.88,.76,.38,1.55,.72,2.35,1l.19-1.84h2l.57,2c1.51-.2,2.71-.37,3.93-.5,2.2-.23,4.63,.54,6.63-.71,.53-.14,1.1-.14,1.63,0,1.53,.21,3.04,.52,4.52,.93,1.81,.78,3.86,.78,5.67,0,.65-.19,1.35-.19,2,0,1,.3,1.98,.66,2.94,1.08l.12,1.15c1.42,0,2.9,.8,4-.53,.17-.22,1.28-.11,2.11-.11l-1.5,3,.79,.32c.69-.46,1.4-1,2.07-1.48,1.42-1,2.65-2.26,5.3-2,.83-.05,1.64-.25,2.39-.59,2.48-.79,4.29,0,4.95,2l4.73-.63,.12-1.53c1.89-.3,4.1,.63,5.61-1.13l3.8,3.84c.63-.54,1.1-.91,1.53-1.31,1.6-1.35,3.74-1.87,5.78-1.42,.23,.03,.44,.12,.61,.27,1.16,1.87,3.69,1.22,5.74,1.38,.41-.04,.8-.16,1.15-.37l8.41,.7-2.49,.81c2.16,.79,4.64,.77,5.74-.4,.77-.83,1.49-.72,2.46-.72h2.92c1.67,0,2.42-.72,2.6-2.52,1.86,.72,3.31-2,5.22-.19,2.09-1,4.11-2,6.21-3,.52-.16,1.09-.16,1.61,0,1.19,.47,2.26,1.07,3.4,1.6,.4,.04,.79,.04,1.19,0l-1.51-3.05c3.71-.59,4.51-.23,5,2.24l3.26-.13-1.08-1.34,2.18-.44-1.85-2c.46-.12,.94-.19,1.42-.21,2,.11,3.67-.12,4.76-1.4,.41-.1,.85-.1,1.26,0,.41,.09,.78,.46,1.11,.46,2.72-.26,4.4,.83,6.14,1.95,.85,.38,1.74,.69,2.65,.91l-.26-2.85,4.9,1.46c.67-1.17,2-1.62,4.18-1.51s4.3-.07,6.44,0c.82,.14,1.63,.35,2.42,.62,1.1,.2,2.24,.3,3.85,.52l-.89-2.82c.34-.78,1.77-.78,3.34-.78,.93,.18,1.9-.06,2.64-.65,.32-.26,1.89,0,3.54,0-1.24,.93-2.12,1.56-2.94,2.22-.31,.28-.59,.6-.84,.94,.78,0,2,.14,2.28-.13,2.12-1.9,4.74-2.5,8.29-2.41,1.74,0,3.56-1.14,5.3-1.82,.6-.29,1.17-.63,1.72-1v-1.4c2.39-.78,4.53-1.43,6.53-2.14,1.39-.49,5.39-.19,6.39,.53,.67-.33,1.13-1.37,2.21-.12,.39,.44,2.25,.1,2.59,1.11,.67,.08,1.36,.01,2-.2,1.16-1.06,2.5-.54,3.82-.4,.56,.06,1.11,.15,1.66,.28l7,.52,.17,1.51c.49-.12,.88-.18,1.23-.3,.51-.24,1.05-.42,1.6-.52,2.75-.14,2.75-.11,3.89-1.74,1.21,1,2.37,1,4,.21l.18-.07c1.07-.39,2.25,.16,2.64,1.23v.03c.39,.88,.93,1.24,2.73,1l-.69-3.11,2.62-.1c1,1.86,1.68,1.9,4.2,1,1.95-.55,3.93-.98,5.94-1.27l.54,1.74c.64,0,1.28-.03,1.91-.1,.52-.12,1.03-.28,1.52-.49-.23,.58,1.45,.91,.34,1.72-.6,.43-.51,1.3-.83,2.24l2.4,1.27,.14-.19,2.16,2.37c1.6-1.03,3.63-1.13,5.33-.28,1.53,.68,2.66-.64,4-1,1.62-.45,3.11-1.13,4.41-1.6,2.75,2.22,5.69,.68,8.2,1.21l.19-.34-1.32-.9,.13-.41c2.65,.47,5.41-.78,8,.65,.55,.19,1.14,.21,1.71,.08,.85-1.37,2.48-.47,3.78-.74l.57,1.49c3-1.1,4.09-.78,4.75,1.32,.1,.33,.63,.6,.85,.79l-1,1.93,.66,.45c1.5-.36,2.97-.89,4.36-1.56,1.85-1.43,4.44-1.37,6.22,.15,.21,.15,.22,.43,.32,.65l.7-.27c.15-.45,.11-1.07,.48-1.47,.46-.37,1.05-.51,1.63-.4,2.1-.03,4.19,.09,6.27,.36,1.98,.51,3.91,1.18,5.78,2-.25,.28-.68,.72-1.06,1.19-.15,.17-.34,.42-.26,.59,.21,.19,.49,.3,.77,.3,.4,.06,.81,.01,1.19-.14,1.81-1.46,2.84-.45,4,.57l-2.3,.57c1.3,1.68,3.86,1.78,6.45,2.58l-.76,2.7h-.55l1.71,1c1.44-1.08,4.17-1,6.05-.16,1.11,.29,2.25,.45,3.39,.45,.06,.46,.1,.92,.12,1.38,2.7,.57,5.69-.71,8.28,.86l.46-1.41c1.07,.19,2.88,.66,3.07,.47,.76-.67,1.81-.91,2.79-.63,1.69,.18,3.37,.52,5,1,1.32,.45,1.21,.61,2.1-.23,1.44,1.09,3.42,1.14,4.92,.13,1,.46,2,.94,3,1.38,.32,.13,.66,.18,1,.13,1.63-1.28,3.39-.12,5.06-.18,1.72-.13,3.43-.36,5.12-.69,2.21-.38,3.51,1,5.39,1.19,.64,.16,1.29,.25,1.95,.28,1.25-.26,2.52-.44,3.79-.54,2.12,.07,4.36-.41,6.36,.61,.45,.15,.94,.15,1.39,0,3-1.4,6.47-.27,9.67-.61,.7-.07,1.7,1.31,2.7,2.12,.17-.38,.3-.77,.39-1.18V1.11H0Z"/></g></svg>