<?xml version="1.0" encoding="UTF-8"?><svg id="a" xmlns="http://www.w3.org/2000/svg" viewBox="0 0 500.37 33.72"><defs><style>.b{fill:#fff;}.c{opacity:.5;}</style></defs><path class="b" d="M500.35,33.65V2.33c-.08-.41-.21-.8-.39-1.18-1,.81-2,2.19-2.69,2.12-3.2-.34-6.67,.79-9.67-.61-.45-.15-.94-.15-1.39,0-2,1.02-4.24,.54-6.36,.61-1.27-.09-2.54-.27-3.79-.53-.66,.02-1.31,.12-1.95,.27-1.88,.2-3.18,1.57-5.39,1.2-1.69-.34-3.4-.57-5.12-.69-1.67-.06-3.43,1.09-5.06-.19-.34-.05-.69,0-1,.14-1,.43-2,.91-3,1.38-1.5-1.02-3.48-.97-4.92,.12-.89-.83-.78-.68-2.1-.23-1.63,.48-3.31,.82-5,1-.98,.28-2.03,.04-2.79-.63-.19-.19-2,.28-3.07,.47l-.46-1.4c-2.59,1.56-5.58,.28-8.28,.85-.01,.46-.05,.92-.12,1.38-1.14,0-2.28,.16-3.38,.46-1.88,.83-4.61,.91-6.05-.17l-1.71,1h.55l.76,2.7c-2.59,.8-5.15,.9-6.45,2.59l2.3,.56c-1.16,1.02-2.19,2.03-4,.57-.38-.15-.79-.2-1.19-.14-.29,0-.56,.11-.77,.3-.08,.17,.11,.42,.26,.59,.38,.47,.81,.92,1.06,1.19-1.87,.82-3.8,1.49-5.78,2-2.08,.27-4.17,.39-6.27,.37-.58,.11-1.17-.04-1.63-.41-.37-.4-.33-1.01-.48-1.47l-.7-.27c-.1,.22-.11,.5-.32,.65-1.77,1.49-4.34,1.56-6.18,.16-1.39-.67-2.85-1.19-4.36-1.54l-.66,.45,1,1.93c-.22,.19-.75,.47-.85,.79-.66,2.1-1.75,2.43-4.75,1.32l-.57,1.49c-1.3-.27-2.93,.63-3.78-.74-.57-.13-1.16-.1-1.71,.08-2.59,1.43-5.35,.18-8,.65l-.13-.4,1.32-1-.19-.33c-2.51,.52-5.45-1.02-8.2,1.2-1.3-.47-2.78-1.15-4.4-1.6-1.34-.36-2.47-1.68-4-1-1.7,.85-3.73,.74-5.33-.29l-2.16,2.38-.14-.2-2.4,1.27c.32,.95,.23,1.81,.83,2.24,1.11,.82-.57,1.14-.34,1.72-.5-.21-1.01-.37-1.54-.48-.63-.07-1.27-.11-1.91-.1l-.55,1.74c-1.99-.3-3.97-.72-5.91-1.26-2.52-.89-3.2-.85-4.2,1l-2.62-.1,.69-3.1c-1.8-.24-2.34,.12-2.72,1v.03c-.4,1.07-1.58,1.62-2.65,1.23l-.18-.07c-1.63-.79-2.79-.79-4,.21-1.14-1.63-1.14-1.6-3.89-1.73-.55-.11-1.09-.29-1.6-.53-.35-.11-.74-.17-1.23-.3l-.17,1.52-7,.51c-.55,.13-1.1,.23-1.66,.28-1.32,.14-2.66,.66-3.82-.4-.65-.21-1.33-.27-2-.2-.34,1.01-2.2,.67-2.59,1.12-1.08,1.24-1.54,.2-2.21-.13-1,.72-4.99,1.02-6.38,.53-2-.71-4.14-1.36-6.53-2.14v-1.29c-.55-.37-1.12-.71-1.72-1-1.74-.68-3.56-1.83-5.3-1.83-3.55,.09-6.17-.51-8.29-2.41-.28-.27-1.5-.13-2.28-.13,.25,.34,.53,.66,.84,.95,.82,.66,1.7,1.29,2.94,2.21-1.65,0-3.22,.26-3.54,0-.74-.59-1.71-.83-2.64-.65-1.57,0-3,0-3.34-.78l.85-2.79c-1.61,.21-2.75,.31-3.85,.51-.77,.22-1.56,.39-2.35,.49-2.14,.07-4.26-.12-6.44,0s-3.51-.34-4.18-1.51l-4.9,1.46,.26-2.85c-.91,.23-1.79,.53-2.65,.91-1.74,1.12-3.42,2.22-6.14,1.95-.33,0-.7,.37-1.11,.46-.41,.1-.85,.1-1.26,0-1.09-1.28-2.76-1.51-4.76-1.4-.48-.02-.95-.09-1.42-.2l1.85-2-2.18-.45,1.08-1.34-3.25-.13c-.49,2.47-1.29,2.83-5,2.24l1.51-3c-.4-.05-.79-.05-1.19,0-1.14,.52-2.21,1.12-3.4,1.59-.52,.16-1.09,.16-1.61,0-2.1-1-4.12-2-6.21-3-1.91,1.8-3.36-.92-5.22-.2-.18-1.79-.93-2.51-2.6-2.51h-2.92c-.97,0-1.69,.1-2.46-.72-1.1-1.18-3.58-1.2-5.74-.41l2.49,.81-8.41,.7c-.35-.2-.74-.33-1.15-.36-2.05,.15-4.58-.5-5.74,1.38-.17,.15-.39,.24-.61,.26-2.04,.45-4.18-.07-5.78-1.42-.43-.4-.9-.77-1.53-1.31l-3.8,3.85c-1.51-1.77-3.72-.84-5.61-1.14l-.12-1.53-4.72-.63c-.71,2-2.52,2.79-5,2-.75-.34-1.56-.54-2.39-.59-2.65,.26-3.88-1-5.3-2-.67-.48-1.38-1.02-2.07-1.48l-.79,.32,1.5,3c-.83,0-1.94,.1-2.11-.12-1.1-1.32-2.58-.52-4-.52l-.12,1.14c-.96,.42-1.94,.78-2.94,1.08-.65,.19-1.35,.19-2,0-1.81-.78-3.86-.78-5.67,0-1.48,.41-2.99,.72-4.52,.93-.53,.14-1.1,.14-1.63,0-2-1.25-4.43-.47-6.63-.71-1.22-.13-2.42-.3-3.93-.49l-.57,2h-2l-.19-1.84c-.8,.29-1.59,.62-2.35,1-.36,.22-.41,.66-.76,.89-1.94,1.2-4.19,1.8-6.47,1.72-2.14,0-4.48-.34-5.56,1.48-.06,.11-.52,.08-.73,.18-.94,.44-1.89,.88-2.76,1.38-1.05,.76-2.18,1.39-3.37,1.89-.66,.21-1.85-.41-2.85-.65-.2-.09-.41-.09-.61-.09-1.61-.3-3.25-.58-4.81-1-.45-.17-.78-.54-.92-1-.53-1.6-2.86-3.04-5.19-3.1-4.78,0-9.55,0-14.33-.06-.48,0-1.27,.12-1.39,0-1.14-1.26-2.95-.64-4.46-.76-3.24-.28-6.63,.55-9.76-.62-.29-.11-.85,.18-1.29,.26-1.8,.32-3.6,.91-5.21-.36-.61-.36-1.26-.65-1.94-.86-.07,.6-.14,1.21-.22,1.81,0,.17-.02,.34-.06,.5-.36,.07-.74,.13-1.11,.23-1.8,.45-3.58,1.01-5.42,1.45-.64,.13-1.31,.06-1.91-.21-1.35-1.09-3.09-1.59-4.81-1.39L.37,9.93v23.72H500.35Z"/><g class="c"><path class="b" d="M500.07,32.54V1.18c-.09-.41-.22-.8-.39-1.18-1,.81-2,2.19-2.7,2.12-3.2-.34-6.67,.79-9.67-.61-.45-.15-.94-.15-1.39,0-2,1.02-4.24,.54-6.36,.61-1.27-.1-2.54-.28-3.79-.54-.66,.03-1.31,.12-1.95,.28-1.88,.19-3.18,1.57-5.39,1.19-1.69-.33-3.4-.56-5.12-.69-1.67-.06-3.43,1.1-5.06-.18-.34-.05-.68,0-1,.13-1,.44-2,.92-3,1.38-1.5-1.01-3.48-.96-4.92,.13-.89-.84-.78-.68-2.1-.23-1.63,.48-3.31,.82-5,1-.98,.28-2.03,.04-2.79-.63-.19-.19-2,.28-3.07,.47l-.46-1.41c-2.59,1.57-5.58,.29-8.28,.86-.02,.46-.06,.92-.12,1.38-1.14,0-2.28,.16-3.39,.45-1.88,.84-4.61,.92-6.05-.16l-1.71,1h.55l.76,2.7c-2.59,.8-5.15,.9-6.45,2.58l2.3,.57c-1.16,1.02-2.19,2.03-4,.57-.38-.15-.79-.2-1.19-.14-.28,0-.56,.11-.77,.3-.08,.17,.11,.42,.26,.59,.38,.47,.81,.91,1.06,1.19-1.87,.82-3.8,1.49-5.78,2-2.08,.27-4.17,.39-6.27,.36-.58,.11-1.17-.03-1.63-.4-.37-.4-.33-1.02-.48-1.47l-.7-.27c-.1,.22-.11,.5-.32,.65-1.78,1.52-4.37,1.58-6.22,.15-1.39-.67-2.86-1.2-4.36-1.56l-.66,.45,1,1.93c-.22,.19-.75,.46-.85,.79-.66,2.1-1.75,2.42-4.75,1.32l-.57,1.49c-1.3-.27-2.93,.63-3.78-.74-.57-.13-1.16-.11-1.71,.08-2.59,1.43-5.35,.18-8,.65l-.13-.41,1.32-.9-.19-.34c-2.51,.53-5.45-1.01-8.2,1.21-1.3-.47-2.79-1.15-4.41-1.6-1.34-.36-2.47-1.68-4-1-1.7,.85-3.73,.75-5.33-.28l-2.16,2.37-.14-.19-2.4,1.27c.32,.94,.23,1.81,.83,2.24,1.11,.81-.57,1.14-.34,1.72-.49-.21-1-.37-1.52-.49-.63-.07-1.27-.11-1.91-.1l-.54,1.74c-2.01-.29-3.99-.72-5.94-1.27-2.52-.9-3.2-.86-4.2,1l-2.62-.1,.69-3.11c-1.8-.24-2.34,.12-2.72,1v.03c-.4,1.07-1.58,1.62-2.65,1.23l-.18-.07c-1.63-.79-2.79-.79-4,.21-1.14-1.63-1.14-1.6-3.89-1.74-.55-.1-1.09-.28-1.6-.52-.35-.12-.74-.18-1.23-.3l-.17,1.51-7,.52c-.55,.13-1.1,.22-1.66,.28-1.32,.14-2.66,.66-3.82-.4-.64-.21-1.33-.28-2-.2-.34,1.01-2.2,.67-2.59,1.11-1.08,1.25-1.54,.21-2.21-.12-1,.72-5,1.02-6.39,.53-2-.71-4.14-1.36-6.53-2.14v-1.4c-.55-.37-1.12-.71-1.72-1-1.74-.68-3.56-1.82-5.3-1.82-3.55,.09-6.17-.51-8.29-2.41-.28-.27-1.5-.13-2.28-.13,.25,.34,.53,.66,.84,.94,.82,.66,1.7,1.29,2.94,2.22-1.65,0-3.22,.26-3.54,0-.74-.59-1.71-.83-2.64-.65-1.57,0-3,0-3.34-.78l.89-2.82c-1.61,.22-2.75,.32-3.85,.52-.79,.27-1.6,.48-2.42,.62-2.14,.07-4.26-.11-6.44,0s-3.51-.34-4.18-1.51l-4.9,1.46,.26-2.85c-.91,.22-1.8,.53-2.65,.91-1.74,1.12-3.42,2.21-6.14,1.95-.33,0-.7,.37-1.11,.46-.41,.1-.85,.1-1.26,0-1.09-1.28-2.76-1.51-4.76-1.4-.48-.02-.96-.09-1.42-.21l1.85-2-2.18-.44,1.08-1.34-3.26-.13c-.49,2.47-1.29,2.83-5,2.24l1.51-3.05c-.4-.04-.79-.04-1.19,0-1.14,.53-2.21,1.13-3.4,1.6-.52,.16-1.09,.16-1.61,0-2.1-1-4.12-2-6.21-3-1.91,1.81-3.36-.91-5.22-.19-.18-1.8-.93-2.52-2.6-2.52h-2.92c-.97,0-1.69,.11-2.46-.72-1.1-1.17-3.58-1.19-5.74-.4l2.49,.81-8.41,.7c-.35-.21-.74-.33-1.15-.37-2.05,.16-4.58-.49-5.74,1.38-.17,.15-.38,.24-.61,.27-2.04,.45-4.18-.07-5.78-1.42-.43-.4-.9-.77-1.53-1.31l-3.8,3.84c-1.51-1.76-3.72-.83-5.61-1.13l-.12-1.53-4.73-.63c-.66,2-2.47,2.79-4.95,2-.75-.34-1.56-.54-2.39-.59-2.65,.26-3.88-1-5.3-2-.67-.48-1.38-1.02-2.07-1.48l-.79,.32,1.5,3c-.83,0-1.94,.11-2.11-.11-1.1-1.33-2.58-.53-4-.53l-.12,1.15c-.96,.42-1.94,.78-2.94,1.08-.65,.19-1.35,.19-2,0-1.81-.78-3.86-.78-5.67,0-1.48,.41-2.99,.72-4.52,.93-.53,.14-1.1,.14-1.63,0-2-1.25-4.43-.48-6.63-.71-1.22-.13-2.42-.3-3.93-.5l-.57,2h-2l-.19-1.84c-.8,.28-1.59,.62-2.35,1-.36,.21-.41,.66-.76,.88-1.94,1.21-4.19,1.81-6.47,1.73-2.14,0-4.48-.35-5.56,1.48-.06,.11-.52,.08-.73,.17-.94,.45-1.89,.89-2.76,1.38-1.05,.77-2.18,1.4-3.38,1.9-.66,.2-1.85-.42-2.85-.65-.2-.09-.41-.09-.61-.09-1.61-.3-3.25-.58-4.81-1-.45-.17-.78-.54-.92-1-.53-1.6-2.86-3.04-5.19-3.11-4.78,0-9.55,0-14.33-.06-.48,0-1.27,.13-1.39,0-1.14-1.25-2.95-.64-4.46-.76-3.24-.27-6.63,.56-9.76-.62-.29-.1-.85,.19-1.29,.27-1.8,.32-3.6,.91-5.21-.36-.61-.36-1.26-.65-1.94-.86-.07,.6-.14,1.21-.22,1.81,0,.17-.01,.33-.06,.49-.36,.07-.74,.14-1.11,.24-1.8,.45-3.58,1.01-5.42,1.45-.64,.13-1.31,.05-1.91-.21-1.35-1.09-3.08-1.59-4.81-1.4l-1.71-2.39v23.74H500.07Z"/></g></svg>