<svg width="253" height="85" viewBox="0 0 253 85" fill="none" xmlns="http://www.w3.org/2000/svg">
<path fill-rule="evenodd" clip-rule="evenodd" d="M0.628906 0.943359H252.629V84.9434H0.628906V0.943359ZM16.8689 12.7034H236.389L236.389 73.1834H16.8689L16.8689 12.7034ZM35.1249 21.3434L52.5521 17.7594L52.5521 24.0314L35.1249 27.6154V21.3434ZM60.4369 30.3034V39.2634H38.9329V42.1754H60.4369V49.7914H38.9329V52.7034H60.4369V61.6634H27.2849L27.2849 30.3034H60.4369ZM61.7599 30.3034H86.3999C93.5231 30.3034 98.4063 35.321 98.4063 42.3098C98.4063 49.2986 93.5231 54.3162 86.3999 54.3162H73.4079L73.4079 61.6634H61.7599L61.7599 30.3034ZM73.4079 44.4602H84.1599C85.3247 44.4602 86.7583 44.4602 86.7583 42.3098C86.7583 40.1594 85.3247 40.1594 84.1599 40.1594H73.4079V44.4602ZM139.159 30.3034L139.159 45.9386C139.159 56.825 133.201 62.1114 119.447 62.1114C105.649 62.1114 99.7349 56.8698 99.7349 45.9386L99.7349 30.3034H111.383V45.9386C111.383 49.2986 112.593 52.2554 119.447 52.2554C126.301 52.2554 127.511 49.2538 127.511 45.9386V30.3034H139.159ZM140.947 30.3034H152.595L152.595 61.6634H140.947L140.947 30.3034ZM173.956 62.1114C161.099 62.1114 153.931 59.9162 153.931 50.5978H165.579C165.579 52.121 167.012 53.1514 174.404 53.1514C181.303 53.1514 182.334 52.7034 182.334 51.5386C182.334 50.1946 181.303 50.0154 173.956 49.7914C159.799 49.3434 154.379 47.0138 154.379 39.7114C154.379 32.8122 161.143 29.8554 173.508 29.8554C185.739 29.8554 192.638 32.8122 192.638 40.8314H180.99C180.99 39.1738 178.302 38.8154 172.612 38.8154C167.147 38.8154 166.027 39.0842 166.027 40.2938C166.027 41.4214 167 41.4589 172.648 41.6765C173.059 41.6924 173.495 41.7091 173.956 41.7274C186.321 42.2202 193.982 43.0714 193.982 51.2698C193.982 59.9162 186.814 62.1114 173.956 62.1114ZM203.169 21.3434L220.596 17.7594L220.596 24.0314L203.169 27.6154L203.169 21.3434ZM228.481 30.3034V39.2634H206.977V42.1754H228.481L228.481 49.7914H206.977V52.7034H228.481L228.481 61.6634H195.329L195.329 30.3034H228.481Z" fill="#E10000"/>
</svg>
